<?xml version="1.0" encoding="UTF-8"?>
<svg id="_레이어_1" data-name="레이어 1" xmlns="http://www.w3.org/2000/svg" xmlns:xlink="http://www.w3.org/1999/xlink" viewBox="0 0 425.2 425.2">
  <defs>
    <style>
      .cls-1, .cls-2 {
        fill: #fbe600;
      }

      .cls-1, .cls-3 {
        stroke-width: 0px;
      }

      .cls-4 {
        font-family: S-CoreDream-7ExtraBold, 'S-Core Dream';
        font-size: 68.49px;
        font-weight: 700;
      }

      .cls-4, .cls-3 {
        fill: #3c1b1b;
      }

      .cls-5 {
        clip-path: url(#clippath-7);
      }

      .cls-6 {
        clip-path: url(#clippath-1);
      }

      .cls-7 {
        clip-path: url(#clippath-4);
      }

      .cls-8 {
        clip-path: url(#clippath-10);
      }
    </style>
    <clipPath id="clippath-1">
      <path class="cls-1" d="m130.22,121.15h12.11s.08,33.27.01,41.03c.02,5.66,12.6,5.74,12.59.08l.05-40.67s4.06.03,12.05.03c7.53,0,7.54-11.84,0-11.85-8.48,0-36.84-.23-36.84-.23-7.11.01-7.09,11.62.02,11.62"/>
    </clipPath>
    <clipPath id="clippath-4">
      <path class="cls-1" d="m188.2,123.3l6.74,21.12h-14.05l7.31-21.12Zm-7.55-9.89c-2.98,6.56-13.75,37.57-17.32,45.79-2.59,5.94,8.56,10.79,11.14,4.85l2.43-8.48h22.17s-.76.35,2.18,8.12c2.38,6.28,13.89,1.93,11.51-4.36-3.4-8.99-15.18-41.33-17.32-45.92-.99-2.12-4.54-3.64-7.98-3.64-2.85,0-5.62,1.04-6.8,3.64"/>
    </clipPath>
    <clipPath id="clippath-7">
      <path class="cls-1" d="m216.99,115.34c.02,10.54.06,44.49.06,44.49,0,0-.97,6.75,4.81,6.75s18.63-.06,24.32-.06,5.66-12.11-.03-12.11-16.09-.06-16.09-.06c0,0,.05-31.41.03-39.04-.01-3.69-3.28-5.53-6.55-5.53s-6.57,1.86-6.56,5.57"/>
    </clipPath>
    <clipPath id="clippath-10">
      <path class="cls-1" d="m253.4,113.67c.13,4.62-.15,46.4-.15,49.5,0,4.89,12.44,4.88,12.44,0,0-5.67,0-16.44,0-16.44l3.65-2.93,15.97,21.79c3.23,4.26,13.39-3.44,10.16-7.69l-16.96-22.34s11.51-12.45,16.05-16.96c2.65-2.63-5.55-10.89-8.2-8.25-2.57,2.54-20.6,20.6-20.6,20.6,0,0,.16-11.34,0-17.6-.06-2.38-2.98-3.53-5.97-3.53-3.19,0-6.46,1.32-6.4,3.86"/>
    </clipPath>
  </defs>
  <circle class="cls-1" cx="212.6" cy="212.6" r="212.6"/>
  <g>
    <path class="cls-3" d="m212.33,45.23c-65,0-117.69,41.65-117.69,93.04,0,33.45,22.32,62.76,55.83,79.16-2.46,9.19-8.92,33.29-10.2,38.44-1.6,6.4,2.34,6.32,4.93,4.6,2.03-1.35,32.25-21.91,45.29-30.78,7.08,1.05,14.38,1.61,21.85,1.61,65,0,117.69-41.65,117.69-93.04s-52.69-93.04-117.69-93.04"/>
    <g>
      <g>
        <path class="cls-2" d="m130.22,121.15h12.11s.08,33.27.01,41.03c.02,5.66,12.6,5.74,12.59.08l.05-40.67s4.06.03,12.05.03c7.53,0,7.54-11.84,0-11.85-8.48,0-36.84-.23-36.84-.23-7.11.01-7.09,11.62.02,11.62"/>
        <g class="cls-6">
          <rect class="cls-1" x="123.09" y="109.53" width="51.48" height="58.38"/>
        </g>
      </g>
      <g>
        <path class="cls-2" d="m188.2,123.3l6.74,21.12h-14.05l7.31-21.12Zm-7.55-9.89c-2.98,6.56-13.75,37.57-17.32,45.79-2.59,5.94,8.56,10.79,11.14,4.85l2.43-8.48h22.17s-.76.35,2.18,8.12c2.38,6.28,13.89,1.93,11.51-4.36-3.4-8.99-15.18-41.33-17.32-45.92-.99-2.12-4.54-3.64-7.98-3.64-2.85,0-5.62,1.04-6.8,3.64"/>
        <g class="cls-7">
          <rect class="cls-1" x="160.74" y="109.77" width="54.4" height="60.22"/>
        </g>
      </g>
      <g>
        <path class="cls-2" d="m216.99,115.34c.02,10.54.06,44.49.06,44.49,0,0-.97,6.75,4.81,6.75s18.63-.06,24.32-.06,5.66-12.11-.03-12.11-16.09-.06-16.09-.06c0,0,.05-31.41.03-39.04-.01-3.69-3.28-5.53-6.55-5.53s-6.57,1.86-6.56,5.57"/>
        <g class="cls-5">
          <rect class="cls-1" x="216.08" y="109.78" width="35.8" height="56.81"/>
        </g>
      </g>
      <g>
        <path class="cls-2" d="m253.4,113.67c.13,4.62-.15,46.4-.15,49.5,0,4.89,12.44,4.88,12.44,0,0-5.67,0-16.44,0-16.44l3.65-2.93,15.97,21.79c3.23,4.26,13.39-3.44,10.16-7.69l-16.96-22.34s11.51-12.45,16.05-16.96c2.65-2.63-5.55-10.89-8.2-8.25-2.57,2.54-20.6,20.6-20.6,20.6,0,0,.16-11.34,0-17.6-.06-2.38-2.98-3.53-5.97-3.53-3.19,0-6.46,1.32-6.4,3.86"/>
        <g class="cls-8">
          <rect class="cls-1" x="253.25" y="107.7" width="45.45" height="62.14"/>
        </g>
      </g>
    </g>
  </g>
  <text class="cls-4" transform="translate(93.04 339.12)"><tspan x="0" y="0">카톡상담</tspan></text>
</svg>