<?xml version="1.0" encoding="UTF-8"?>
<svg id="_레이어_1" data-name="레이어 1" xmlns="http://www.w3.org/2000/svg" xmlns:xlink="http://www.w3.org/1999/xlink" viewBox="0 0 439.37 439.37">
  <defs>
    <style>
      .cls-1, .cls-2 {
        fill: #fbe600;
      }

      .cls-1, .cls-3 {
        stroke-width: 0px;
      }

      .cls-4 {
        clip-path: url(#clippath-7);
      }

      .cls-5 {
        clip-path: url(#clippath-1);
      }

      .cls-6 {
        clip-path: url(#clippath-4);
      }

      .cls-7 {
        font-family: S-CoreDream-7ExtraBold, 'S-Core Dream';
        font-size: 75.22px;
        font-weight: 700;
      }

      .cls-7, .cls-3 {
        fill: #3c1b1b;
      }

      .cls-8 {
        clip-path: url(#clippath-10);
      }
    </style>
    <clipPath id="clippath-1">
      <path class="cls-1" d="m137.31,128.23h12.11s.08,33.27.01,41.03c.02,5.66,12.6,5.74,12.59.08l.05-40.67s4.06.03,12.05.03c7.53,0,7.54-11.84,0-11.85-8.48,0-36.84-.23-36.84-.23-7.11.01-7.09,11.62.02,11.62"/>
    </clipPath>
    <clipPath id="clippath-4">
      <path class="cls-1" d="m195.29,130.39l6.74,21.12h-14.05l7.31-21.12Zm-7.55-9.89c-2.98,6.56-13.75,37.57-17.32,45.79-2.59,5.94,8.56,10.79,11.14,4.85l2.43-8.48h22.17s-.76.35,2.18,8.12c2.38,6.28,13.89,1.93,11.51-4.36-3.4-8.99-15.18-41.33-17.32-45.92-.99-2.12-4.54-3.64-7.98-3.64-2.85,0-5.62,1.04-6.8,3.64"/>
    </clipPath>
    <clipPath id="clippath-7">
      <path class="cls-1" d="m224.08,122.43c.02,10.54.06,44.49.06,44.49,0,0-.97,6.75,4.81,6.75s18.63-.06,24.32-.06,5.66-12.11-.03-12.11-16.09-.06-16.09-.06c0,0,.05-31.41.03-39.04-.01-3.69-3.28-5.53-6.55-5.53s-6.57,1.86-6.56,5.57"/>
    </clipPath>
    <clipPath id="clippath-10">
      <path class="cls-1" d="m260.48,120.76c.13,4.62-.15,46.4-.15,49.5,0,4.89,12.44,4.88,12.44,0,0-5.67,0-16.44,0-16.44l3.65-2.93,15.97,21.79c3.23,4.26,13.39-3.44,10.16-7.69l-16.96-22.34s11.51-12.45,16.05-16.96c2.65-2.63-5.55-10.89-8.2-8.25-2.57,2.54-20.6,20.6-20.6,20.6,0,0,.16-11.34,0-17.6-.06-2.38-2.98-3.53-5.97-3.53-3.19,0-6.46,1.32-6.4,3.86"/>
    </clipPath>
  </defs>
  <rect class="cls-3" width="439.37" height="439.37" rx="56.69" ry="56.69"/>
  <rect class="cls-1" x="12.74" y="12.74" width="413.89" height="413.89" rx="56.69" ry="56.69"/>
  <g>
    <g>
      <path class="cls-3" d="m149.39,275.66c-1.98,0-3.87-.57-5.48-1.71-2.1-1.48-5.33-5.1-3.43-12.7,1.11-4.42,5.9-22.36,8.76-33.05-34.31-18.67-54.6-49.28-54.6-82.84,0-55.21,55.98-100.13,124.78-100.13s124.78,44.92,124.78,100.13-55.98,100.13-124.78,100.13c-6.73,0-13.48-.44-20.12-1.3l-2.57,1.75c-14.47,9.84-38.68,26.31-40.51,27.53-2.2,1.46-4.57,2.19-6.82,2.19ZM219.41,59.41c-60.99,0-110.61,38.56-110.61,85.96,0,29.69,19.39,56.9,51.86,72.8l5.24,2.56-1.51,5.64c-3.56,13.29-6.22,23.26-7.96,29.83,8.76-5.95,22.69-15.42,32.31-21.96l7.12-4.84,2.74.41c6.83,1.01,13.83,1.53,20.81,1.53,60.99,0,110.61-38.56,110.61-85.95s-49.62-85.96-110.61-85.96Z"/>
      <path class="cls-3" d="m219.41,52.32c-65,0-117.69,41.65-117.69,93.04,0,33.45,22.32,62.76,55.83,79.16-2.46,9.19-8.92,33.29-10.2,38.44-1.6,6.4,2.34,6.32,4.93,4.6,2.03-1.35,32.25-21.91,45.29-30.78,7.08,1.05,14.38,1.61,21.85,1.61,65,0,117.69-41.65,117.69-93.04s-52.69-93.04-117.69-93.04"/>
      <g>
        <g>
          <path class="cls-2" d="m137.31,128.23h12.11s.08,33.27.01,41.03c.02,5.66,12.6,5.74,12.59.08l.05-40.67s4.06.03,12.05.03c7.53,0,7.54-11.84,0-11.85-8.48,0-36.84-.23-36.84-.23-7.11.01-7.09,11.62.02,11.62"/>
          <g class="cls-5">
            <rect class="cls-1" x="123.09" y="109.53" width="65.65" height="72.55"/>
            <rect class="cls-1" x="130.18" y="116.62" width="51.48" height="58.38"/>
            <path class="cls-1" d="m155.8,180.62c-2.76,0-5.53-.65-7.8-1.95-3.58-2.05-5.64-5.48-5.65-9.39.05-5.48.02-23.74,0-33.96h-5.04c-7.08,0-12.42-5.54-12.42-12.89,0-7.34,5.32-12.89,12.4-12.9.35,0,28.49.23,36.85.23,7.27,0,12.73,5.6,12.73,13.02,0,7.41-5.48,13-12.74,13-1.88,0-3.53,0-4.98,0l-.05,33.57c.01,3.86-2,7.26-5.53,9.31-2.25,1.31-5.01,1.96-7.78,1.96Zm-.87-11.29v.03-.03Z"/>
          </g>
        </g>
        <g>
          <path class="cls-2" d="m195.29,130.39l6.74,21.12h-14.05l7.31-21.12Zm-7.55-9.89c-2.98,6.56-13.75,37.57-17.32,45.79-2.59,5.94,8.56,10.79,11.14,4.85l2.43-8.48h22.17s-.76.35,2.18,8.12c2.38,6.28,13.89,1.93,11.51-4.36-3.4-8.99-15.18-41.33-17.32-45.92-.99-2.12-4.54-3.64-7.98-3.64-2.85,0-5.62,1.04-6.8,3.64"/>
          <g class="cls-6">
            <rect class="cls-1" x="160.74" y="109.77" width="68.57" height="74.39"/>
            <rect class="cls-1" x="167.82" y="116.86" width="54.4" height="60.22"/>
            <path class="cls-1" d="m177.14,180.92c-4.87,0-9.68-2.55-12.26-6.48-2.19-3.35-2.55-7.35-.97-10.99,1.69-3.89,5.24-13.59,8.67-22.96,3.65-9.97,7.09-19.39,8.7-22.93,2.22-4.88,7.17-7.79,13.25-7.79,5.37,0,11.91,2.39,14.4,7.73,1.51,3.23,6.48,16.58,12.8,33.69,1.99,5.39,3.72,10.07,4.72,12.71,1.39,3.67.91,7.63-1.33,10.87-2.58,3.74-7.31,6.15-12.05,6.15-5.23,0-9.59-2.93-11.38-7.64-.5-1.31-.92-2.49-1.27-3.54h-11.11l-1.08,3.79-.19.43c-1.9,4.36-5.98,6.97-10.91,6.97h0Z"/>
          </g>
        </g>
        <g>
          <path class="cls-2" d="m224.08,122.43c.02,10.54.06,44.49.06,44.49,0,0-.97,6.75,4.81,6.75s18.63-.06,24.32-.06,5.66-12.11-.03-12.11-16.09-.06-16.09-.06c0,0,.05-31.41.03-39.04-.01-3.69-3.28-5.53-6.55-5.53s-6.57,1.86-6.56,5.57"/>
          <g class="cls-4">
            <rect class="cls-1" x="216.08" y="109.78" width="49.97" height="70.98"/>
            <rect class="cls-1" x="223.17" y="116.87" width="35.8" height="56.81"/>
            <path class="cls-1" d="m228.95,180.76c-3.59,0-6.76-1.38-8.93-3.89-3.18-3.67-3.14-8.43-2.97-10.32,0-3.76-.04-34.23-.06-44.11h0c0-3.32,1.25-6.4,3.54-8.69,2.52-2.53,6.21-3.98,10.11-3.98,7.75,0,13.62,5.42,13.64,12.6.01,5.31,0,22.27-.02,32.01,3.04.01,6.47.03,8.99.03,6.48,0,11.37,5.66,11.37,13.17,0,2.9-.76,5.71-2.14,7.91-2.07,3.31-5.43,5.21-9.2,5.21-2.83,0-7.43.02-12.05.03-4.67.02-9.37.03-12.28.03Z"/>
          </g>
        </g>
        <g>
          <path class="cls-2" d="m260.48,120.76c.13,4.62-.15,46.4-.15,49.5,0,4.89,12.44,4.88,12.44,0,0-5.67,0-16.44,0-16.44l3.65-2.93,15.97,21.79c3.23,4.26,13.39-3.44,10.16-7.69l-16.96-22.34s11.51-12.45,16.05-16.96c2.65-2.63-5.55-10.89-8.2-8.25-2.57,2.54-20.6,20.6-20.6,20.6,0,0,.16-11.34,0-17.6-.06-2.38-2.98-3.53-5.97-3.53-3.19,0-6.46,1.32-6.4,3.86"/>
          <g class="cls-8">
            <rect class="cls-1" x="253.25" y="107.7" width="59.62" height="76.31"/>
            <rect class="cls-1" x="260.34" y="114.79" width="45.45" height="62.14"/>
            <path class="cls-1" d="m295.07,181c-3.28,0-6.28-1.36-8.32-4.05l-.07-.09-6.82-9.31v2.69c0,3.63-1.92,6.83-5.28,8.78-4.57,2.64-11.46,2.65-16.04.01-3.36-1.94-5.29-5.13-5.29-8.77,0-.82.02-4.33.04-9.15.07-12.89.2-36.87.1-40.16h0c-.07-2.69.94-5.24,2.85-7.2,2.45-2.51,6.32-3.95,10.63-3.95,7.52,0,12.89,4.29,13.05,10.43,0,.22.01.44.02.67,3.89-3.89,7.46-7.46,8.51-8.5,2.33-2.32,5.62-3.12,9.04-2.2,4.97,1.35,10.08,6.49,11.4,11.47.91,3.42.08,6.72-2.26,9.04-2.7,2.69-8.06,8.39-11.79,12.39l13.36,17.59c3.88,5.13,2.19,12.26-4.02,16.97-2.95,2.24-6.15,3.34-9.11,3.34Zm3.38-58.55h-.01s0,0,.01,0Z"/>
          </g>
        </g>
      </g>
    </g>
    <text class="cls-7" transform="translate(87.19 360.27)"><tspan x="0" y="0">카톡상담</tspan></text>
  </g>
</svg>